<svg xmlns="http://www.w3.org/2000/svg" height="1024" preserveAspectRatio="none" style="display: block;" version="1.1" viewBox="0 0 2048 2048" width="1024">
<defs>
	<linearGradient gradientUnits="userSpaceOnUse" id="Gradient1" x1="976.076" x2="1071.85" y1="1448.57" y2="598.096">
		<stop class="stop0" offset="0" stop-color="rgb(195,146,90)" stop-opacity="1"></stop>
		<stop class="stop1" offset="1" stop-color="rgb(216,179,128)" stop-opacity="1"></stop>
	</linearGradient>
</defs>
<path d="M 0 0 L 2048 0 L 2048 2048 L 0 2048 L 0 0 z" fill="rgb(10,10,15)" transform="translate(0,0)"></path>
<path d="M 1016.85 593.323 C 1254.44 589.308 1450.39 778.496 1454.72 1016.09 C 1459.05 1253.68 1270.12 1449.87 1032.53 1454.51 C 794.506 1459.16 597.864 1269.8 593.528 1031.77 C 589.193 793.738 778.81 597.344 1016.85 593.323 z" fill="url(#Gradient1)" transform="translate(0,0)"></path>
<path d="M 1011.21 610.219 C 1239.45 603.146 1430.32 782.183 1437.86 1010.4 C 1445.39 1238.62 1266.75 1429.86 1038.54 1437.86 C 809.682 1445.88 617.773 1266.61 610.216 1037.73 C 602.658 808.856 782.323 617.311 1011.21 610.219 z" fill="rgb(10,10,15)" transform="translate(0,0)"></path>
<path d="M 1132.1 1268.86 C 1060.31 1295.31 992.015 1298.2 919.392 1270.63 C 857.961 1247.32 802.592 1194.5 776.068 1134.37 C 746.459 1067.74 744.54 992.062 770.734 924.007 C 796.091 859.16 846.4 807.194 910.392 779.751 C 980.756 749.031 1062.08 752.515 1132.71 780.452 L 1137.1 782.815 L 1136.68 783.592 C 1133.3 783.281 1131.55 783.072 1128.24 782.368 C 1063.87 772.594 998.25 788.866 945.9 827.586 C 893.45 866.754 859.371 920.826 850.058 985.993 C 840.765 1049.59 857.166 1114.28 895.639 1165.77 C 937.083 1220.75 1002.4 1256.63 1070.23 1265.93 C 1089.86 1268.63 1109.76 1268.83 1129.45 1266.52 L 1135.36 1265.56 L 1136.54 1266.94 L 1132.1 1268.86 z" fill="rgb(230,198,122)" transform="translate(0,0)"></path>
<path d="M 1035 855.469 C 1040.16 901.99 1041.8 949.898 1047.41 996.631 L 1081.13 976.722 C 1074.46 987.526 1068.01 998.468 1061.79 1009.54 C 1086.5 1013.85 1128.04 1017.52 1149.57 1023.05 C 1121.83 1026.52 1089.32 1029.85 1062.03 1034.5 C 1067.94 1046.2 1075.86 1058.74 1082.8 1070 C 1070.2 1061.33 1060.07 1055.37 1047.02 1047.57 C 1040.86 1097.9 1039.74 1153.68 1035.12 1204.71 C 1034.42 1203.34 1033.71 1201.99 1032.98 1200.64 C 1033.14 1194.8 1032.05 1186.28 1031.5 1180.32 C 1027.46 1136.45 1025.11 1092.26 1020.67 1048.44 C 1009.52 1055.55 998.322 1062.58 987.076 1069.54 C 994.033 1058.85 1001.03 1045.57 1007.41 1034.27 C 981.272 1032.1 945.52 1025.82 918.44 1022.24 C 947.398 1017.71 978.201 1014.36 1007.56 1010.16 C 1002.99 998.757 994.106 986.22 987.226 975.787 C 998.29 982.882 1009.44 989.122 1020.87 995.61 C 1023.39 980.134 1025.01 956.012 1026.29 940.161 C 1028.4 913.132 1030.7 886.117 1033.17 859.12 L 1035 855.469 z" fill="rgb(230,198,122)" transform="translate(0,0)"></path>
<path d="M 1032.98 1200.64 C 1033.71 1201.99 1034.42 1203.34 1035.12 1204.71 C 1035.1 1207.99 1035.03 1211.28 1034.9 1214.56 C 1035.11 1217.17 1035.07 1217.72 1034.71 1220.25 L 1034.5 1220.1 L 1034.5 1220.33 C 1032.65 1219.26 1032.99 1206.78 1033.05 1204.96 L 1032.98 1200.64 z" fill="rgb(90,78,65)" transform="translate(0,0)"></path>
<path d="M 1032.98 1200.64 C 1033.71 1201.99 1034.42 1203.34 1035.12 1204.71 C 1035.1 1207.99 1035.03 1211.28 1034.9 1214.56 C 1034.21 1211.32 1033.69 1208.19 1033.05 1204.96 L 1032.98 1200.64 z" fill="rgb(201,164,74)" transform="translate(0,0)"></path>
<path d="M 1032.98 855.106 C 1032.97 854.053 1032.46 843.034 1034.44 843.106 C 1035.26 844.038 1035 846.328 1034.97 847.429 C 1035.03 850.109 1035.04 852.789 1035 855.469 L 1033.17 859.12 L 1032.98 855.106 z" fill="rgb(90,78,65)" transform="translate(0,0)"></path>
<path d="M 1032.98 855.106 C 1033.63 852.544 1034.29 849.985 1034.97 847.429 C 1035.03 850.109 1035.04 852.789 1035 855.469 L 1033.17 859.12 L 1032.98 855.106 z" fill="rgb(201,164,74)" transform="translate(0,0)"></path>
<path d="M 1135.36 1265.56 C 1135.34 1265.57 1139.83 1264.08 1138.62 1265.9 C 1138.33 1266.35 1136.96 1266.76 1136.54 1266.94 L 1135.36 1265.56 z" fill="rgb(90,78,65)" transform="translate(0,0)"></path>
<metadata><recraft-signature>{"signed_by": "recraft", "signature_b64": "3RtENsVjFOKFXqOjSMbmFBWvYANP859vnlERVd5fWyjxqeQj3HkA81NoOrNuJYWdbEPzYYjRndDc8x5GASf4Ag==", "signing_algo": "Ed25519", "generation_timestamp": 1782992582, "identifier": "a00b795d-eefa-4799-9038-0e1554f3b0eb"}</recraft-signature></metadata></svg>